# xmcd
#
# Track frame offsets:
#	150
#	16587
#	32915
#	57233
#	83417
#	106514
#
# Disc length: 1726 seconds
#
# Revision: 0
# Processed by: cddbd v1.5.2PL0 Copyright (c) Steve Scherf et al.
# Submitted via: EasyCDDAExtractor 10.0.2.1
#
DISCID=3206bc06
DTITLE=Juanita Dailey - Love Hurts [CD 5)
DYEAR=2001
DGENRE=R&B
TTITLE0=Love Hurts (Radio Edit)
TTITLE1=Love Hurts (Remix Edit)
TTITLE2=Love Hurts (Remix)
TTITLE3=Love Hurts (Remix Instrumental)
TTITLE4=Love Hurts (Album Version)
TTITLE5=Love Hurts (Instrumental)
EXTD=
EXTT0=
EXTT1=
EXTT2=
EXTT3=
EXTT4=
EXTT5=
PLAYORDER=
